<?xml version="1.0" encoding="UTF-8"?>
<!DOCTYPE svg PUBLIC "-//W3C//DTD SVG 1.1//EN" "http://www.w3.org/Graphics/SVG/1.1/DTD/svg11.dtd">
<svg version="1.1" xmlns="http://www.w3.org/2000/svg" xmlns:xlink="http://www.w3.org/1999/xlink" x="0" y="0" width="513" height="307" viewBox="0, 0, 513, 307">
  <g id="Layer_1">
    <path d="M233.313,59.959 C234.111,60.126 235.902,61.049 237.438,62.417 C238.473,63.341 238.836,63.973 238.915,64.198 C238.89,64.339 238.821,64.67 238.644,65.352 L238.238,66.899 L238.972,67.559 C236.99,74.316 232.046,88.48 230.67,90.338 C228.771,90.294 226.553,89.822 225.978,89.196 C226.436,87.638 227.152,84.064 228.04,79.64 C229.162,74.046 231.077,64.504 232.397,60.614 L233.313,59.959 z M252.882,76.936 C253.744,77.112 255.44,77.874 256.854,79.135 C257.616,79.814 257.85,80.28 257.874,80.314 C257.856,80.589 257.782,81.177 257.668,81.983 L257.466,83.441 L258.256,84.09 C257.298,90.454 255.192,102.426 254.116,104.432 C252.221,104.379 250.032,103.908 249.472,103.285 C249.959,101.395 250.28,96.873 250.648,91.696 C250.959,87.328 251.389,81.308 251.954,78.08 L252.882,76.936 z M272.596,95.609 L273.719,92.583 C274.624,92.827 276.18,93.567 277.487,94.733 C278.249,95.413 278.483,95.879 278.506,95.915 C278.5,95.995 278.461,96.486 278.208,98.258 L277.989,99.783 L278.784,100.392 C277.784,106.896 275.788,118.097 274.749,120.031 C272.854,119.979 270.667,119.507 270.106,118.884 C270.592,116.994 270.915,112.473 271.282,107.297 C271.543,103.618 271.889,98.769 272.331,95.398 L272.596,95.609 z M298.981,115.198 L299.52,115.571 L300.172,115.647 C302.028,115.864 303.667,116.429 304.36,116.946 L303.973,118.589 L304.575,118.98 C302.76,123.364 298.051,132.158 296.797,133.18 C294.875,133.153 292.586,132.678 291.991,132.041 C292.292,131.123 292.692,129.76 293.143,128.212 C294.26,124.391 296.875,115.441 298.084,114.748 L298.295,114.72 C298.522,114.878 298.754,115.043 298.981,115.198 M323.604,128.946 L324.514,128.474 C326.016,128.308 329.374,128.984 330.491,129.874 L330.428,131.536 L330.749,131.653 C329.006,135.954 324.157,145.031 322.879,146.072 C320.959,146.044 318.67,145.57 318.073,144.933 C318.375,144.015 318.774,142.651 319.227,141.104 C320.131,138.009 322.018,131.556 323.344,128.842 L323.604,128.946 z M349.206,138.557 L350.116,138.03 C351.461,137.87 354.725,138.515 355.895,139.525 L356.057,139.691 L356.016,141.354 L356.448,141.548 C354.848,146.304 349.797,157.097 348.409,158.397 C346.428,158.361 344.155,157.815 343.612,157.021 C343.917,155.98 344.327,154.383 344.795,152.562 C345.711,149.001 347.629,141.545 349.012,138.481 L349.206,138.557 z M231.69,229.807 C236.828,229.867 241.938,229.903 247.007,229.903 C354.917,229.903 446.104,216.663 474.024,208.559 C489.92,203.944 496.52,200.427 499.36,197.934 L504.311,236.349 C502.186,237.939 492.87,243.167 456.651,249.874 C418.782,256.886 332.875,263.097 265.52,265.32 C261.62,252.018 248.569,240.484 231.69,229.807 M8.044,220.88 C8.618,220.302 10.606,219.306 12.352,218.739 L15.712,217.719 C32.04,220.291 101.771,226.263 210.112,229.377 C231.041,240.8 248.726,252.688 254.262,265.659 C241.5,266.003 229.597,266.188 219.058,266.188 C153.996,266.188 21.722,257.347 9.863,255.08 C7.985,250.24 7.562,224.911 8.044,220.88 M27.419,139.743 C45.147,147.235 54.009,167.506 57.14,176.432 C61.901,190.013 62.627,201.995 60.746,207.545 C42.377,206.149 27.032,204.554 17.895,202.706 L15.12,200.251 C8.183,194.114 15.637,173.435 21.625,156.817 C23.812,150.751 25.89,144.975 27.419,139.743 M35.512,88.65 C69.227,100.635 98.41,106.261 122.707,105.505 C110.389,120.433 102.058,136.586 105.342,153.326 C75.426,153.609 47.652,145.44 26.918,132.496 C22.207,119.861 28.32,104.045 35.512,88.65 M364.534,153.523 C363.625,152.802 362.702,152.069 361.749,151.315 C359.924,149.871 358.067,148.398 356.202,146.914 C356.774,145.559 357.299,144.244 357.721,143.096 C365.956,146.814 372.444,150.692 373.336,154.253 C370.456,153.89 367.555,153.631 364.534,153.523 M425.399,205.996 C404.477,210.001 348.612,213.555 298.241,215.266 C301.094,201.654 320.79,194.774 340.801,190.871 C351.7,190.174 363.254,188.637 375.436,186.029 C386.545,184.703 390.028,183.962 390.739,181.71 C392.299,176.771 384.606,169.613 369.313,157.335 C374.866,157.844 380.241,158.822 386.231,159.916 C396.875,161.857 410.122,164.274 430.475,165.115 C436.422,165.361 441.965,165.418 446.856,165.469 C470.78,165.717 484.118,165.855 494.52,186.548 C490.374,189.944 462.452,198.902 425.399,205.996 M213.971,219.153 C220.792,219.627 230.678,219.844 242.537,219.844 C297.999,219.844 396.565,215.085 426.057,209.439 C443.274,206.143 461.077,201.89 474.901,197.773 C487.489,194.024 493.209,191.509 495.862,189.817 C497.069,191.137 498.157,192.463 498.77,193.358 L499.075,195.722 C497.348,197.858 491.905,201.543 473.536,206.876 C444.145,215.406 344.377,229.645 228.82,228.022 C223.868,224.99 218.626,222.024 213.221,219.104 C213.467,219.12 213.73,219.137 213.971,219.153 M206.457,215.178 C204.319,205.374 194.872,191.367 181.355,178.118 C168.982,165.989 155.759,156.967 143.939,152.442 C163.372,148.537 180.475,142.797 192.82,137.976 C193.864,137.568 194.88,137.155 195.885,136.74 C201.872,146.135 220.174,163.285 249.604,175.948 C267.182,183.511 292.375,190.883 324.094,191.286 C308.909,195.956 296.604,203.271 294.653,215.386 C260.637,216.487 229.598,216.724 214.212,215.657 C211.971,215.501 209.355,215.342 206.457,215.178 M180.106,213.879 C175.475,213.668 170.609,213.45 165.572,213.225 C133.709,211.796 95.188,210.07 64.306,207.811 C66.292,200.596 64.907,187.991 60.447,175.272 C58.049,168.436 52.438,155.281 42.24,145.525 C59.306,153.153 78.809,157.007 100.547,157.007 C102.427,157.007 104.331,156.968 106.244,156.911 C113.198,179.517 145.379,196.338 180.106,213.879 M202.319,213.362 C197.599,210.928 192.818,208.516 188.057,206.113 C157.043,190.462 125.042,174.312 117.196,156.286 C117.489,156.261 117.778,156.244 118.072,156.218 C124.396,155.662 130.601,154.831 136.622,153.803 C163.808,160.52 196.019,194.615 202.319,213.362 M232.515,114.649 C234.928,116.611 247.029,125.777 280.809,142.038 C316.403,159.172 340.458,175.375 346.667,186.223 C344.452,186.585 342.227,186.98 340.008,187.409 C301.282,189.785 271.079,181.372 250.991,172.729 C222.974,160.673 205.051,144.172 199.154,135.345 C214.317,128.671 224.781,121.188 232.515,114.649 M151.397,100.963 C173.932,93.893 183.94,80.593 188.467,74.111 C196.965,87.594 215.301,107.003 228.803,113.173 C220.345,120.128 208.709,128.009 191.545,134.711 C177.98,140.007 158.615,146.428 136.753,150.226 C136.462,150.158 136.165,150.075 135.875,150.013 L135.796,150.387 C129.938,151.381 123.91,152.186 117.766,152.726 C117.181,152.778 116.599,152.817 116.016,152.862 L115.966,152.697 C111.97,136.649 123.234,119.761 138.007,104.082 C142.693,103.327 147.162,102.293 151.397,100.963 M183.975,59.571 C184.835,61.224 185.493,62.804 185.881,64.26 C186.271,65.717 186.548,67.71 185.667,68.938 C185.396,69.313 185.095,69.749 184.756,70.237 C175.229,83.99 161.798,93.026 144.581,97.382 C150.258,91.796 156.18,86.411 161.77,81.326 C170.889,73.032 178.666,65.959 183.975,59.571 M177.004,38.684 C177.455,39.462 178.087,40.07 178.805,40.465 C179.263,41.382 179.73,42.64 179.97,43.426 C179.433,43.351 178.9,43.202 178.385,42.986 C177.083,41.531 175.739,40.108 174.375,38.739 C173.896,37.46 173.777,36.099 174.052,34.803 C174.404,33.143 175.358,31.79 176.736,30.995 C177.573,30.511 178.512,30.266 179.479,30.266 C180.104,30.266 180.744,30.368 181.376,30.574 C183.023,31.11 184.436,32.279 185.351,33.865 C185.613,34.32 185.819,34.794 185.98,35.278 L183.788,36.449 C183.682,35.977 183.516,35.511 183.262,35.071 C182.448,33.662 181.044,32.787 179.599,32.787 C179.027,32.787 178.494,32.927 178.013,33.205 C177.212,33.667 176.656,34.465 176.446,35.454 C176.221,36.521 176.418,37.668 177.004,38.684 M13.143,205.201 C21.767,207.527 39.733,209.472 61.771,211.129 L62.532,211.7 C62.649,211.545 62.76,211.38 62.869,211.21 C94.065,213.529 133.144,215.28 165.416,216.727 C173.376,217.083 180.907,217.42 187.755,217.742 C194.15,220.976 200.53,224.231 206.681,227.522 C94.897,224.221 27.362,217.958 15.059,215.929 L13.388,214.376 C13.254,214.118 13.211,213.129 13.181,212.409 C13.119,210.957 13.04,209.151 12.435,207.002 C12.19,206.139 12.605,205.568 13.143,205.201 M341.594,157.981 C341.813,159.05 342.452,160.022 343.395,160.719 C344.706,161.687 346.34,161.929 347.667,161.351 C348.19,161.123 348.624,160.78 348.954,160.335 C349.024,160.24 349.071,160.133 349.127,160.032 C349.6,159.779 350.34,158.978 351.711,156.461 C352.342,158.299 352.155,160.297 351.006,161.851 C349.03,164.523 344.973,164.884 341.963,162.66 C338.95,160.434 338.104,156.449 340.079,153.777 C340.858,152.721 341.967,152.035 343.204,151.717 C343.167,151.854 343.133,151.986 343.098,152.126 C342.815,153.225 342.555,154.236 342.327,155.092 L342.131,155.294 C341.583,156.037 341.391,156.991 341.594,157.981 M330.497,136.423 C331.042,135.294 331.583,134.124 332.034,133.063 C333.006,133.421 333.987,133.782 334.979,134.146 C338.801,135.549 342.946,137.073 347.053,138.669 C346.668,139.624 346.254,140.829 345.792,142.33 C340.485,140.45 335.391,138.471 330.497,136.423 M315.702,144.472 C315.918,145.541 316.559,146.514 317.502,147.21 C318.811,148.178 320.448,148.42 321.774,147.842 L321.881,147.778 C322.465,147.821 322.901,147.826 323.049,147.826 C323.454,147.826 324.118,147.813 326.151,144.522 C326.266,145.875 325.94,147.224 325.112,148.342 C323.139,151.014 319.083,151.376 316.069,149.151 C313.057,146.925 312.211,142.94 314.184,140.268 C315.17,138.935 316.674,138.181 318.307,138.032 C318.061,138.852 317.811,139.702 317.543,140.612 L317.493,140.788 C316.985,141.016 316.561,141.349 316.239,141.785 C315.69,142.528 315.499,143.482 315.702,144.472 M304.241,123.882 C304.749,122.844 305.26,121.753 305.708,120.733 C309.756,123.345 313.235,125.38 315.877,126.623 C317.516,127.393 319.383,128.188 321.393,129.001 C321.034,129.805 320.659,130.773 320.258,131.914 C314.606,129.292 309.266,126.597 304.241,123.882 M290.067,133.443 C290.286,134.512 290.926,135.485 291.87,136.182 C293.178,137.149 294.815,137.391 296.141,136.814 C296.665,136.585 297.098,136.243 297.426,135.797 C297.721,135.398 297.905,134.936 297.987,134.442 C298.454,134.008 299.112,133.18 300.075,131.62 C300.838,133.539 300.692,135.673 299.481,137.314 C297.504,139.985 293.45,140.348 290.436,138.122 C287.422,135.896 286.579,131.912 288.551,129.239 C289.319,128.202 290.403,127.522 291.616,127.197 C291.563,127.374 291.514,127.54 291.461,127.721 C291.098,128.961 290.772,130.076 290.506,130.928 C290.045,131.645 289.879,132.525 290.067,133.443 M279.17,108.672 C279.549,106.561 279.907,104.44 280.211,102.545 C285.801,106.798 291.247,110.805 296.25,114.328 C295.68,115.2 295.086,116.521 294.424,118.329 C288.877,115.051 283.792,111.802 279.17,108.672 M258.491,93.321 C258.928,90.906 259.338,88.462 259.672,86.352 C263.25,89.273 266.922,92.214 270.604,95.111 C270.372,96.848 270.151,99.14 269.911,102.144 C265.528,98.923 261.725,95.944 258.491,93.321 M269.6,106.254 C269.579,106.557 269.555,106.859 269.534,107.173 C269.407,108.943 269.28,110.732 269.147,112.368 C268.321,112.704 267.549,113.184 266.877,113.83 C263.79,116.805 263.936,121.987 267.204,125.38 C268.776,127.012 270.831,127.996 272.991,128.151 C273.19,128.165 273.387,128.172 273.584,128.172 C275.551,128.172 277.362,127.462 278.735,126.141 C281.823,123.165 281.676,117.984 278.409,114.59 C278.305,114.483 278.194,114.388 278.088,114.287 C278.208,113.713 278.333,113.093 278.463,112.428 C282.979,115.45 287.92,118.575 293.276,121.722 C292.932,122.805 292.565,124 292.176,125.304 C290.192,125.568 288.366,126.543 287.143,128.198 C284.594,131.647 285.604,136.731 289.395,139.532 C291.032,140.742 292.924,141.33 294.75,141.33 C297.153,141.33 299.442,140.314 300.889,138.355 C302.727,135.868 302.706,132.534 301.135,129.816 C301.59,129.014 302.094,128.087 302.657,127.012 C307.827,129.803 313.329,132.571 319.153,135.264 C319.053,135.583 318.952,135.915 318.848,136.251 C316.469,136.27 314.209,137.286 312.776,139.227 C310.227,142.676 311.237,147.76 315.028,150.56 C316.665,151.771 318.557,152.359 320.385,152.359 C322.786,152.359 325.075,151.342 326.524,149.384 C328.04,147.33 328.288,144.697 327.444,142.311 C327.889,141.515 328.377,140.606 328.92,139.564 C334,141.693 339.292,143.751 344.807,145.701 C344.461,146.941 344.092,148.314 343.69,149.843 C341.711,150.11 339.889,151.084 338.668,152.735 C336.122,156.185 337.131,161.269 340.92,164.069 C342.559,165.28 344.45,165.868 346.278,165.868 C348.68,165.868 350.967,164.851 352.417,162.893 C354.223,160.446 354.233,157.18 352.737,154.487 C353.254,153.453 353.838,152.231 354.5,150.785 C354.583,150.605 354.667,150.421 354.749,150.237 C356.37,151.526 357.983,152.806 359.573,154.064 C367.528,160.358 375.04,166.303 380.268,171.186 C386.618,177.114 387.436,179.53 387.434,180.382 C385.663,181.335 377.786,182.239 370.157,183.115 C364.202,183.799 357.381,184.583 350.329,185.647 C342.163,169.095 300.489,147.621 282.329,138.879 C250.977,123.787 238.382,114.761 235.214,112.311 C237.518,110.272 239.563,108.354 241.412,106.62 C242.316,105.77 243.173,104.966 243.995,104.209 C243.348,106.886 244.127,109.961 246.317,112.235 C247.89,113.867 249.944,114.851 252.104,115.005 C252.305,115.02 252.502,115.027 252.698,115.027 C254.666,115.027 256.477,114.317 257.848,112.996 C260.938,110.021 260.792,104.839 257.522,101.445 C257.342,101.258 257.155,101.084 256.963,100.916 C257.202,99.897 257.462,98.679 257.75,97.229 C261.135,99.941 265.088,102.991 269.6,106.254 M276.653,119.926 C276.934,119.13 277.254,117.988 277.631,116.365 C279.752,119.04 279.75,122.727 277.518,124.878 C276.372,125.982 274.799,126.522 273.116,126.403 C271.389,126.279 269.737,125.484 268.467,124.165 C265.868,121.467 265.702,117.397 268.092,115.092 C268.366,114.831 268.659,114.604 268.969,114.41 C268.776,116.44 268.569,118.027 268.334,118.696 L268.235,118.984 L268.334,119.272 C268.459,119.633 268.69,119.937 268.979,120.201 C269.153,121.037 269.569,121.832 270.204,122.491 C271.333,123.663 272.907,124.176 274.309,123.828 C274.864,123.69 275.348,123.425 275.749,123.041 C276.413,122.399 276.76,121.49 276.727,120.48 C276.721,120.294 276.684,120.11 276.653,119.926 M255.418,105.646 C255.713,105.199 256.049,104.38 256.463,102.893 C258.858,105.587 258.959,109.493 256.631,111.733 C255.485,112.838 253.917,113.379 252.229,113.258 C250.502,113.133 248.852,112.339 247.581,111.019 C244.981,108.321 244.814,104.251 247.208,101.947 C247.473,101.692 247.757,101.471 248.059,101.28 C247.945,102.102 247.828,102.735 247.702,103.097 L247.601,103.385 L247.701,103.673 C247.831,104.047 248.072,104.359 248.377,104.63 C248.121,105.14 247.979,105.718 248,106.345 C248.037,107.436 248.504,108.501 249.318,109.346 C250.447,110.518 252.02,111.03 253.423,110.683 C253.979,110.545 254.461,110.28 254.862,109.895 C255.528,109.254 255.875,108.345 255.84,107.335 C255.821,106.754 255.67,106.183 255.418,105.646 M240.11,69.742 C243.194,72.49 246.565,75.41 250.127,78.424 C249.86,80.112 249.614,82.451 249.348,85.68 L248.952,85.344 C245.459,82.395 241.906,78.967 238.349,75.26 C238.984,73.336 239.596,71.426 240.11,69.742 M223.669,92.581 C224.483,93.99 225.888,94.865 227.333,94.865 C227.904,94.865 228.438,94.724 228.918,94.447 C229.718,93.985 230.274,93.186 230.484,92.198 L230.498,92.085 C230.717,92.093 230.88,92.095 230.959,92.095 C231.371,92.095 231.813,92.089 232.86,89.966 C233.064,90.924 233.08,91.903 232.878,92.849 C232.526,94.509 231.573,95.861 230.194,96.657 C228.817,97.454 227.168,97.602 225.555,97.078 C223.907,96.542 222.497,95.373 221.582,93.787 C220.665,92.2 220.358,90.393 220.717,88.699 C221.069,87.039 222.023,85.687 223.401,84.891 C223.999,84.546 224.647,84.329 225.321,84.229 C225.093,85.324 224.885,86.295 224.704,87.089 L224.678,87.102 C223.877,87.563 223.321,88.362 223.111,89.35 C222.885,90.417 223.083,91.564 223.669,92.581 M183.776,19.627 C189.521,22.294 199.555,34.65 210.19,47.769 C207.963,50.429 205.645,53.384 203.715,56.01 C202.018,55.732 200.331,56.017 198.864,56.864 C197.049,57.911 195.798,59.674 195.342,61.826 C194.893,63.944 195.27,66.191 196.401,68.153 C197.535,70.115 199.292,71.564 201.352,72.235 C202.166,72.499 202.987,72.63 203.795,72.63 C205.065,72.63 206.301,72.306 207.411,71.666 C209.225,70.618 210.476,68.855 210.933,66.703 C211.195,65.461 211.167,64.176 210.876,62.929 C213.696,60.655 215.993,58.751 217.851,57.164 C221.275,61.324 224.788,65.506 228.339,69.537 C227.76,72.204 227.099,75.421 226.321,79.295 C226.103,80.386 225.892,81.439 225.689,82.431 C224.579,82.499 223.502,82.809 222.525,83.373 C220.71,84.42 219.46,86.183 219.003,88.335 C218.554,90.454 218.931,92.701 220.063,94.663 C221.195,96.625 222.954,98.074 225.013,98.744 C225.827,99.008 226.648,99.14 227.457,99.14 C228.728,99.14 229.962,98.815 231.071,98.175 C232.885,97.127 234.137,95.365 234.593,93.212 C234.988,91.35 234.745,89.388 233.91,87.607 C234.702,85.682 235.729,82.932 237.085,78.998 C240.301,82.287 243.515,85.341 246.689,88.022 L248.223,89.323 C248.474,89.536 248.747,89.768 249.015,89.995 C248.978,90.506 248.939,91.028 248.9,91.572 C248.794,93.058 248.688,94.558 248.578,95.97 C245.634,97.858 242.617,100.681 239.013,104.064 C236.903,106.043 234.532,108.267 231.803,110.638 C218.755,105.727 198.681,84.474 190.598,70.887 C191.671,68.726 191.802,66.052 190.961,62.904 C190.309,60.459 189.066,57.772 187.414,54.99 C189.994,51.098 191.455,47.431 191.496,43.85 C191.537,40.38 190.194,37.22 187.631,34.688 C187.436,34.105 187.185,33.535 186.869,32.989 C185.736,31.027 183.979,29.578 181.918,28.907 C179.826,28.227 177.673,28.429 175.86,29.477 C174.045,30.524 172.794,32.287 172.338,34.439 C172.188,35.147 172.139,35.868 172.169,36.589 C166.766,31.465 161.294,27.343 157.338,25.549 C157.069,25.427 156.801,25.34 156.532,25.25 C159.62,22.908 162.631,21.001 165.637,19.672 C166.638,19.484 167.639,19.088 168.644,18.541 C173.551,17.027 178.5,17.177 183.776,19.627 M212.515,45.068 C201.316,31.259 191.654,19.42 185.252,16.448 C181.568,14.737 178.035,14.026 174.627,14.068 C174.919,13.816 175.212,13.562 175.507,13.306 C179.149,10.144 183.276,6.56 186.189,7.319 C189.329,8.138 197.343,19.02 205.096,29.545 C208.196,33.754 211.483,38.215 214.829,42.565 C214.117,43.294 213.335,44.142 212.515,45.068 M199.302,63.418 L199.365,63.6 C199.342,64.437 199.56,65.292 200.008,66.071 C200.822,67.48 202.227,68.356 203.671,68.356 C204.244,68.356 204.776,68.215 205.257,67.938 C205.876,67.58 206.345,67.017 206.625,66.325 L206.629,66.32 C207.576,65.572 208.461,64.866 209.316,64.182 C209.396,64.905 209.368,65.632 209.217,66.34 C208.865,68 207.913,69.352 206.534,70.147 C205.156,70.944 203.507,71.092 201.894,70.568 C200.247,70.032 198.835,68.863 197.919,67.277 C197.003,65.691 196.697,63.884 197.057,62.19 C197.409,60.53 198.362,59.177 199.74,58.382 C200.578,57.898 201.516,57.653 202.483,57.653 L202.527,57.657 C200.858,60.013 199.645,61.941 199.315,62.88 L199.223,63.147 L199.302,63.418 z M227.125,57.355 C228.111,58.413 229.247,59.571 230.505,60.812 C230.145,61.945 229.75,63.417 229.298,65.304 C226.322,61.878 223.377,58.363 220.494,54.858 C221.463,53.992 222.263,53.25 222.914,52.619 C224.329,54.278 225.734,55.866 227.125,57.355 M216.862,43.777 L218.686,42.553 C218.883,42.655 219.213,42.864 219.683,43.282 C221.424,44.836 223.003,47.383 223.247,48.393 L223.199,48.456 L221.955,50.132 L222.416,50.676 C220.311,52.787 215.688,56.922 205.542,64.945 L205.146,65.26 C204.739,65.585 203.929,66.091 203.069,65.82 C202.25,65.562 201.545,64.637 201.071,63.201 C202.559,59.748 212.162,47.84 216.517,43.326 L216.862,43.777 z M46.34,27.126 C47.418,26.325 48.123,26.442 48.912,26.893 C52.139,28.737 52.847,31.6 53.828,35.562 C55.955,44.155 58.602,54.848 86.965,60.01 C113.542,64.845 130.417,49.219 141.583,38.879 C147.3,33.583 152.242,29.006 155.167,30.338 C160.79,32.887 170.476,41.366 177.554,50.103 C173.131,56.565 163.704,65.353 154.693,73.547 C145.691,81.734 135.902,90.638 127.388,100.085 C102.912,101.869 72.547,96.323 36.419,83.391 C33.105,66.035 38.848,32.703 46.34,27.126 M506.956,195.156 C507.551,192.566 506.649,189.516 500.323,183.055 L498.772,181.472 C486.815,159.747 470.75,159.583 446.92,159.335 C442.077,159.286 436.586,159.229 430.729,158.986 C410.803,158.163 397.792,155.789 387.333,153.881 C384.434,153.352 381.77,152.871 379.161,152.447 C377.665,147.479 371.905,142.869 360.981,137.827 C360.655,136.984 360.096,136.207 359.333,135.546 C356.674,133.251 351.624,132.452 349.088,132.869 C345.153,131.348 341.061,129.844 337.092,128.387 L335.344,127.744 C335.047,127.086 334.596,126.478 334.006,125.95 C331.534,123.747 326.262,122.92 323.624,123.29 C321.604,122.472 319.917,121.743 318.487,121.071 C316.249,120.019 313.266,118.306 309.608,115.972 C309.418,114.887 308.84,113.879 307.922,113.059 C306.088,111.424 303.028,110.761 301.458,110.517 C296.114,106.806 290.124,102.423 283.622,97.472 C283.692,96.924 283.737,96.521 283.752,96.266 C283.838,94.98 283.43,92.99 280.987,90.81 C279.344,89.345 275.389,86.732 272.178,87.326 C271.782,87.398 271.415,87.522 271.077,87.698 C268.387,85.557 265.704,83.392 263.067,81.234 C263.106,80.89 263.116,80.739 263.12,80.665 C263.206,79.379 262.795,77.389 260.356,75.212 C258.11,73.208 254.457,71.275 251.668,71.705 C248.966,69.392 246.43,67.176 244.096,65.093 C244.143,64.824 244.162,64.644 244.17,64.5 C244.303,62.545 243.214,60.525 240.938,58.493 C240.175,57.814 236.472,54.677 233.057,54.677 L233.048,54.677 C232.54,54.154 232.059,53.651 231.607,53.169 C230.591,52.08 229.542,50.909 228.423,49.617 C228.477,49.396 228.509,49.174 228.525,48.944 C228.755,45.507 225.024,41.001 223.183,39.358 C221.554,37.905 219.958,37.19 218.449,37.204 C215.536,33.376 212.631,29.432 210.035,25.907 C198.516,10.268 192.755,2.692 187.737,1.384 C181.698,-0.191 176.272,4.518 171.485,8.674 C169.624,10.292 167.701,11.961 166.084,12.935 C159.357,15.198 153.343,19.789 149.292,23.181 C145.047,24.921 140.946,28.718 136.224,33.092 C131.535,37.434 126.229,42.348 119.848,46.234 C98.706,53.563 83.019,45.986 78.971,35.087 C74.002,21.714 63.565,15.797 51.563,19.435 C48.244,18.054 44.681,18.529 41.632,20.799 C30.333,29.208 25.347,66.752 28.645,84.715 C20.774,101.495 13.213,120.566 20.08,136.629 L19.833,137.582 C18.355,142.628 16.247,148.48 14.206,154.144 C7.828,171.84 1.244,190.107 6.204,201.117 C4.521,203.409 4.023,206.241 4.845,209.147 C5.201,210.407 5.251,211.595 5.3,212.747 C5.308,212.897 5.313,213.051 5.321,213.209 C2.69,214.705 1.061,216.511 0.466,218.591 C-0.421,221.7 0.23,238.735 0.236,238.906 C0.999,257.487 2.833,260.09 5.34,261.741 C6.669,262.615 7.629,263.247 32.868,265.244 C48.213,266.459 68.489,267.827 89.961,269.097 C115.235,270.594 178.411,274.075 219.058,274.075 C229.197,274.075 240.75,273.905 253.428,273.568 C253.496,275.831 253.102,278.068 252.243,280.353 L251.317,282.814 L254.576,284.04 L247.513,302.778 L255.713,305.867 L262.778,287.126 L266.081,288.369 L267.006,285.908 C268.624,281.608 269.407,277.304 269.34,273.079 C334.235,270.822 419.11,264.847 458.086,257.628 C491.362,251.466 509.485,245.286 511.946,239.262 L512.473,237.976 L506.956,195.156" fill="#0B0B09"/>
  </g>
</svg>
